<?xml version="1.0" encoding="UTF-8" standalone="no"?>
<!-- Created with Inkscape (http://www.inkscape.org/) -->

<svg
   version="1.1"
   id="svg1"
   viewBox="0 0 117.76 117.76"
   sodipodi:docname="pov.svg"
   inkscape:version="1.4 (e7c3feb1, 2024-10-09)"
   xmlns:inkscape="http://www.inkscape.org/namespaces/inkscape"
   xmlns:sodipodi="http://sodipodi.sourceforge.net/DTD/sodipodi-0.dtd"
   xmlns="http://www.w3.org/2000/svg"
   xmlns:svg="http://www.w3.org/2000/svg">
  <defs
     id="defs1" />
  <sodipodi:namedview
     id="namedview1"
     pagecolor="#ffffff"
     bordercolor="#000000"
     borderopacity="0.25"
     inkscape:showpageshadow="2"
     inkscape:pageopacity="0.0"
     inkscape:pagecheckerboard="0"
     inkscape:deskcolor="#d1d1d1"
     inkscape:zoom="1.7663043"
     inkscape:cx="212.87385"
     inkscape:cy="44.160001"
     inkscape:window-width="1864"
     inkscape:window-height="1057"
     inkscape:window-x="2536"
     inkscape:window-y="125"
     inkscape:window-maximized="0"
     inkscape:current-layer="g2">
    <inkscape:page
       x="0"
       y="0"
       width="117.76"
       height="117.76"
       id="page2"
       margin="0"
       bleed="0" />
  </sodipodi:namedview>
  <g
     inkscape:groupmode="layer"
     inkscape:label="Image"
     id="g1">
    <g
       id="g2"
       style="display:inline">
      <path
         style="display:inline;fill:#ffffff"
         d="m 63.365123,91.493582 c 1.845183,-1.07053 8.322878,-4.762115 14.394878,-8.20352 6.072001,-3.441406 11.292001,-6.475836 11.600001,-6.743177 0.520193,-0.451524 0.559651,-1.682442 0.5551,-17.31648 -0.0027,-9.256722 -0.110696,-16.97844 -0.24,-17.159372 -0.129305,-0.180932 -1.5311,-1.06064 -3.1151,-1.954906 -1.584,-0.894266 -6.408001,-3.613869 -10.720001,-6.043562 -4.312,-2.429694 -9.689144,-5.473986 -11.949209,-6.765095 C 61.630726,26.016362 59.644319,24.96 59.476552,24.96 c -0.167767,0 -4.582622,2.424156 -9.810791,5.387013 -5.228168,2.962857 -11.988945,6.78654 -15.023948,8.497072 -4.017557,2.2643 -5.564531,3.301214 -5.688603,3.812987 -0.09373,0.386611 -0.130543,8.114385 -0.08181,17.172832 l 0.0886,16.469904 3.52,2.007828 c 1.936,1.104305 3.684593,2.008849 3.885763,2.010097 0.20117,0.0012 0.45317,-0.225509 0.56,-0.503904 C 37.032593,79.535435 37.12,71.983835 37.12,63.032496 V 46.757335 l 2.96,-1.725422 c 6.736952,-3.927056 19.0578,-10.791912 19.369017,-10.791912 0.18412,0 1.319414,0.558578 2.522874,1.241284 1.203461,0.682707 6.07611,3.443748 10.82811,6.135648 4.752,2.691899 8.746757,5.049321 8.877238,5.238715 0.13048,0.189394 0.20248,5.883577 0.16,12.65374 l -0.07724,12.309388 -4.48,2.521542 c -2.464,1.386848 -7.382847,4.163624 -10.930772,6.170613 -3.547925,2.006989 -6.69302,3.649071 -6.989099,3.649071 -0.29608,0 -3.830257,-1.88481 -7.853727,-4.188466 -4.02347,-2.303656 -7.466376,-4.095158 -7.650901,-3.981115 -0.539925,0.333692 -0.442301,8.32258 0.107276,8.778688 0.944016,0.783464 15.096918,8.670893 15.558719,8.670893 0.268812,0 1.998443,-0.875889 3.843626,-1.94642 z M 55.179624,72.111545 c 12.94751,-7.27089 17.837,-10.162581 18.405317,-10.885079 0.914909,-1.163118 0.866737,-2.984607 -0.106711,-4.034975 -0.418974,-0.45208 -1.462974,-1.177792 -2.32,-1.612692 -0.857026,-0.4349 -5.510693,-3.038043 -10.341483,-5.784763 -9.249651,-5.259222 -10.185996,-5.616257 -11.787372,-4.49461 -1.628225,1.140453 -1.669374,1.487042 -1.669374,14.060575 0,12.783261 0.03887,13.079611 1.844023,14.059076 1.52305,0.826398 2.592249,0.592445 5.9756,-1.307532 z M 53.760001,59.360001 c 0,-3.256 0.120338,-5.92 0.267417,-5.92 0.499276,0 10.254535,5.598067 10.316264,5.92 0.05474,0.285467 -9.752113,5.890018 -10.343681,5.911347 -0.132,0.0048 -0.24,-2.655347 -0.24,-5.911347 z"
         id="path2"
         sodipodi:nodetypes="ssssssssssssscscsscsssssscssssssssssssssssssssscs" />
    </g>
  </g>
</svg>
